<svg xmlns="http://www.w3.org/2000/svg" width="15" height="13" viewBox="0 0 15 13" fill="none">
    <path d="M1.95652 0C0.825 0 0.00318444 0.628815 0.00318444 1.49366C0.00318444 2.36153 0.844565 3.01804 1.95652 3.01804C3.08804 3.01804 3.90986 2.37708 3.90986 1.47594C3.85769 0.608072 3.05217 0 1.95652 0ZM0.326087 3.62578C0.146739 3.62578 0 3.76186 0 3.92817V12.6976C0 12.8639 0.146739 13 0.326087 13H3.58696C3.7663 13 3.91304 12.8639 3.91304 12.6976V3.92817C3.91304 3.76186 3.7663 3.62578 3.58696 3.62578H0.326087ZM5.21739 3.62578C5.03804 3.62578 4.8913 3.76186 4.8913 3.92817V12.6976C4.8913 12.8639 5.03804 13 5.21739 13H8.15217C8.33217 13 8.47826 12.8645 8.47826 12.6976V8.16169V8.08609V8.0105C8.47826 7.29382 9.07194 6.71006 9.82847 6.65563C9.8676 6.64958 9.90652 6.64972 9.94565 6.64972C9.98478 6.64972 10.0237 6.64958 10.0628 6.65563C10.8194 6.71006 11.413 7.29382 11.413 8.0105V12.6976C11.413 12.8645 11.5591 13 11.7391 13H14.6739C14.8533 13 15 12.8639 15 12.6976V7.5569C15 5.60041 13.8682 3.62578 11.3443 3.62578C10.1964 3.62578 9.32935 4.03711 8.80435 4.37881V3.92817C8.80435 3.76186 8.65761 3.62578 8.47826 3.62578H5.21739Z" fill="#5E6166"/>
</svg>