<svg xmlns="http://www.w3.org/2000/svg" width="36" height="37" fill="none" viewBox="0 0 36 37">
    <path fill="#575757" d="M18 3.87a15 15 0 0 0-4.744 29.231c.75.132 1.031-.318 1.031-.712 0-.357-.018-1.538-.018-2.794-3.769.694-4.744-.919-5.044-1.762a5.454 5.454 0 0 0-1.537-2.12c-.526-.28-1.276-.974-.02-.993a3 3 0 0 1 2.307 1.538 3.207 3.207 0 0 0 4.369 1.237 3.156 3.156 0 0 1 .956-2.006c-3.338-.375-6.825-1.669-6.825-7.406a5.838 5.838 0 0 1 1.537-4.032 5.39 5.39 0 0 1 .15-3.975s1.257-.393 4.125 1.538a14.142 14.142 0 0 1 7.5 0c2.87-1.95 4.126-1.538 4.126-1.538a5.39 5.39 0 0 1 .15 3.975 5.804 5.804 0 0 1 1.537 4.032c0 5.756-3.506 7.03-6.844 7.406a3.554 3.554 0 0 1 1.013 2.775c0 2.006-.019 3.619-.019 4.125 0 .394.281.862 1.031.712A15.008 15.008 0 0 0 18 3.871V3.87Z"/>
</svg>

