<svg xmlns="http://www.w3.org/2000/svg" width="34" height="34" fill="none" viewBox="0 0 34 34">
    <path fill="#3D3D3D" d="M17 10.333a1.666 1.666 0 1 0 0 3.334 3.333 3.333 0 1 1 0 6.666 1.666 1.666 0 1 0 0 3.334 6.666 6.666 0 1 0 0-13.334Zm16.183 5.484L29.267 12V6.4A1.667 1.667 0 0 0 27.6 4.733h-5.517l-3.9-3.916a1.666 1.666 0 0 0-2.366 0L12 4.733H6.4A1.667 1.667 0 0 0 4.733 6.4V12L.817 15.817a1.666 1.666 0 0 0 0 2.366l3.916 3.9V27.6A1.667 1.667 0 0 0 6.4 29.267H12l3.9 3.916a1.666 1.666 0 0 0 2.367 0l3.9-3.916h5.516A1.666 1.666 0 0 0 29.35 27.6v-5.517l3.917-3.9a1.665 1.665 0 0 0-.084-2.366Zm-6.75 4.4a1.668 1.668 0 0 0-.5 1.183v4.533H21.4a1.667 1.667 0 0 0-1.183.5L17 29.65l-3.217-3.217a1.668 1.668 0 0 0-1.183-.5H8.067V21.4a1.667 1.667 0 0 0-.5-1.183L4.35 17l3.217-3.217a1.666 1.666 0 0 0 .5-1.183V8.067H12.6a1.667 1.667 0 0 0 1.183-.5L17 4.35l3.217 3.217a1.666 1.666 0 0 0 1.183.5h4.533V12.6a1.67 1.67 0 0 0 .5 1.183L29.65 17l-3.217 3.217Z"/>
</svg>
