<svg xmlns="http://www.w3.org/2000/svg" width="36" height="37" fill="none" viewBox="0 0 36 37">
    <path fill="#575757" d="M30.705 3.5H5.295A2.175 2.175 0 0 0 3.09 5.645v25.71A2.175 2.175 0 0 0 5.295 33.5h25.41a2.175 2.175 0 0 0 2.205-2.145V5.645A2.175 2.175 0 0 0 30.705 3.5Zm-18.57 25.11h-4.5v-13.5h4.5v13.5Zm-2.25-15.39a2.34 2.34 0 1 1 0-4.68 2.355 2.355 0 1 1 0 4.68Zm18.48 15.39h-4.5v-7.245c0-1.815-.645-3-2.28-3A2.474 2.474 0 0 0 19.275 20a3 3 0 0 0-.15 1.095v7.5h-4.5v-13.5h4.5V17a4.5 4.5 0 0 1 4.065-2.25c3 0 5.175 1.935 5.175 6.09v7.77Z"/>
</svg>
